{
  "title": "Azhar (2016) Tiny 1080p Blu-ray x264 AAC 5.1 ESub -[DDR Exclusiv",
  "uid": 15420183,
  "size": 1270728741,
  "categoryP": "video",
  "categoryS": "hd___movies",
  "magnet": "?xt=urn:btih:2c0d212847e28db0542eaa48fa8a28419e32060c&amp;dn=Azhar+%282016%29+Tiny+1080p+Blu-ray+x264+AAC+5.1+ESub+-%5BDDR+Exclusiv&amp;tr=udp%3A%2F%2Ftracker.leechers-paradise.org%3A6969&amp;tr=udp%3A%2F%2Fzer0day.ch%3A1337&amp;tr=udp%3A%2F%2Fopen.demonii.com%3A1337&amp;tr=udp%3A%2F%2Ftracker.coppersurfer.tk%3A6969&amp;tr=udp%3A%2F%2Fexodus.desync.com%3A6969",
  "seeders": 43,
  "leechers": 24,
  "uploader": "SaM",
  "files": 3,
  "time": 1469628764,
  "description": "\n** AZHAR**\r\n\r\n** 2016 **\r\n** Tiny 1080p / Blu-Ray / x264 / AAC 5.1 **\r\n\r\n** English Subtitle(s) **\r\n\r\n\r\n\r\n[ SCREENS ]\r\n \nhttp://extraimago.com/image/afdI \nhttp://extraimago.com/image/afdl \nhttp://extraimago.com/image/afdi \nhttp://extraimago.com/image/afdm \nhttp://extraimago.com/image/afdR \nhttp://extraimago.com/image/afdQ \nhttp://extraimago.com/image/afdL \nhttp://extraimago.com/image/afdy \nhttp://extraimago.com/image/afdq \nhttp://extraimago.com/image/afdS \nhttp://extraimago.com/image/afdO \nhttp://extraimago.com/image/afdE \nhttp://extraimago.com/image/afd1 \nhttp://extraimago.com/image/afdc \nhttp://extraimago.com/image/afd7 \nhttp://extraimago.com/image/afds\r\n\r\n\r\n[ Info ]\r\nSource : DDR Blu-ray BD50\r\nFormat : Matroska\r\nFile size : 1.18 GiB\r\nDuration : 2h 10mn\r\nOverall bit rate : 1 295 Kbps\r\nEncoded date : UTC 2016-07-26 23:02:19\r\n\r\nVideo\r\nFormat : AVC\r\nFormat/Info : Advanced Video Codec\r\nFormat profile :   \r\nFormat settings, CABAC : Yes\r\nFormat settings, ReFrames : 12 frames\r\nCodec ID : V_MPEG4/ISO/AVC\r\nDuration : 2h 10mn\r\nBit rate : 1 096 Kbps\r\nWidth : 1 920 pixels\r\nHeight : 816 pixels\r\nDisplay aspect ratio : 2.35:1\r\nFrame rate mode : Constant\r\nFrame rate : 24.000 fps\r\nColor space : YUV\r\nChroma subsampling : 4:2:0\r\nBit depth : 8 bits\r\nScan type : Progressive\r\nBits/(Pixel*Frame) : 0.029\r\nStream size : 1 020 MiB (85%)\r\nLanguage : English\r\nDefault : Yes\r\nForced : No\r\nColor range : Limited\r\nColor primaries : BT.709\r\n\r\nAudio\r\nFormat : AAC\r\nFormat/Info : Advanced Audio Codec\r\nFormat profile : LC\r\nCodec ID : A_AAC\r\nDuration : 2h 10mn\r\nBit rate : 192 Kbps\r\nChannel(s) : 6 channels\r\nChannel positions : Front: L C R, Side: L R, LFE\r\nSampling rate : 48.0 KHz\r\nFrame rate : 46.875 fps (1024 spf)\r\nCompression mode : Lossy\r\nDelay relative to video : 19ms\r\nStream size : 178 MiB (15%)\r\nLanguage : Hindi\r\nDefault : Yes\r\nForced : No\r\n\r\nText\r\nID : 3\r\nFormat : VobSub\r\nMuxing mode : zlib\r\nCodec ID : S_VOBSUB\r\nCodec ID/Info : Picture based subtitle format used on DVDs\r\nDuration : 2h 7mn\r\nBit rate : 5 216 bps\r\nCount of elements : 2019\r\nStream size : 4.76 MiB (0%)\r\nLanguage : English\r\nDefault : Yes\r\nForced : No\r\n\r\nChapters = YES\r\n\r\n[ A DDR Exclusive Tiny Encode !!! NOTICE ]",
  "parsed": {
    "xt": "urn:btih:2c0d212847e28db0542eaa48fa8a28419e32060c",
    "dn": "Azhar (2016) Tiny 1080p Blu-ray x264 AAC 5.1 ESub -[DDR Exclusiv",
    "tr": [
      "udp://exodus.desync.com:6969",
      "udp://open.demonii.com:1337",
      "udp://tracker.coppersurfer.tk:6969",
      "udp://tracker.leechers-paradise.org:6969",
      "udp://zer0day.ch:1337"
    ],
    "infoHash": "2c0d212847e28db0542eaa48fa8a28419e32060c",
    "infoHashBuffer": {
      "type": "Buffer",
      "data": [
        44,
        13,
        33,
        40,
        71,
        226,
        141,
        176,
        84,
        46,
        170,
        72,
        250,
        138,
        40,
        65,
        158,
        50,
        6,
        12
      ]
    },
    "name": "Azhar (2016) Tiny 1080p Blu-ray x264 AAC 5.1 ESub -[DDR Exclusiv",
    "announce": [
      "udp://exodus.desync.com:6969",
      "udp://open.demonii.com:1337",
      "udp://tracker.coppersurfer.tk:6969",
      "udp://tracker.leechers-paradise.org:6969",
      "udp://zer0day.ch:1337"
    ],
    "urlList": []
  },
  "previous": 67,
  "peers": 52,
  "last_updated": "2016-12-24T20:52:26.990Z"
}